<svg width="193" height="320" viewBox="0 0 193 320" fill="none" xmlns="http://www.w3.org/2000/svg">
<path fill-rule="evenodd" clip-rule="evenodd" d="M30.1878 20.767C65.8589 24.7423 104.798 17.0557 134.533 32.6552C164.593 48.425 178.843 76.3616 187.731 103.417C196.148 129.038 194.379 155.673 183.153 180.655C172.078 205.3 147.137 222.772 125.154 242.672C94.7469 270.197 76.6089 313.076 30.1878 319.123C-15.9896 325.138 -62.8932 299.257 -91.5692 270.902C-117.304 245.456 -105.768 209.858 -112.448 178.086C-117.79 152.677 -128.79 129.256 -126.751 103.567C-124.064 69.7171 -135.314 25.8909 -98.8399 6.64718C-62.1685 -12.7004 -13.8839 15.8555 30.1878 20.767Z" fill="white"/>
</svg>
