<svg width="201" height="256" viewBox="0 0 201 256" fill="none" xmlns="http://www.w3.org/2000/svg">
<path fill-rule="evenodd" clip-rule="evenodd" d="M14.6436 217.068C-4.32848 198.194 4.72636 167.244 3.18777 140.986C1.82038 117.65 -3.55016 94.1755 6.17462 72.5358C16.3531 49.8865 35.3314 31.8582 57.7786 19.5094C81.0868 6.68701 108.056 -2.98366 134.159 2.12867C159.692 7.12973 174.21 30.6124 194.284 46.2452C217.31 64.1769 254.857 72.3443 260.251 100.323C265.631 128.23 232.348 148.748 218.994 174.42C205.296 200.754 208.969 239.765 181.113 252.466C153.147 265.217 124.024 237.758 94.0542 231.386C67.1153 225.657 33.6289 235.956 14.6436 217.068Z" fill="#8633B0"/>
</svg>
