<svg width="237" height="407" viewBox="0 0 237 407" fill="none" xmlns="http://www.w3.org/2000/svg">
<path fill-rule="evenodd" clip-rule="evenodd" d="M170.601 371.49C122.458 382.603 66.6408 426.516 28.1019 396.921C-11.1613 366.77 26.4163 304.368 21.0636 256.656C17.2422 222.593 -2.39209 192.25 1.31762 158.176C5.76935 117.287 13.1412 73.6458 44.1117 44.9578C77.0386 14.4576 124.682 3.48653 170.601 1.36791C218.287 -0.832202 271.28 2.05126 306.338 32.8592C340.398 62.7912 333.629 113.764 346.659 156.084C359.157 196.674 397.281 236.093 381.036 275.466C364.768 314.895 310.529 322.674 270.364 341.002C238.084 355.732 205.397 363.459 170.601 371.49Z" fill="#4754EB"/>
</svg>
